<?xml version="1.0" encoding="utf-8"?>
<!-- Generator: Adobe Illustrator 18.1.1, SVG Export Plug-In . SVG Version: 6.00 Build 0)  -->
<svg version="1.1" id="Layer_1" xmlns="http://www.w3.org/2000/svg" xmlns:xlink="http://www.w3.org/1999/xlink" x="0px" y="0px"
	 viewBox="88.6 0 613.1 613.1" enable-background="new 88.6 0 613.1 613.1" xml:space="preserve">
<g>
	<path fill="#333333" d="M540.8,250.2c0.6,0.3,2,0.9,4.8,0.9c17.6,0,57.8-15.6,87.5-28.3C587.8,232.1,546.5,243.4,540.8,250.2z"/>
	<path fill="#333333" d="M309.6,191.8c4.2,0.9,8.2-2,9.1-6.2s-2-8.2-6.2-9.1c-4.2-0.9-8.5,2-9.1,6.2
		C302.5,187,305.3,191,309.6,191.8z M311,182.8c0.6,0,1.1,0.9,1.1,1.4c-0.3,1.4-2.8,0.9-2.5-0.6C309.9,183.3,310.4,182.8,311,182.8z
		"/>
	<path fill="#333333" d="M395.4,0C226,0,88.6,137.4,88.6,306.6C88.6,476,226,613.1,395.1,613.1c169.4,0,306.6-137.4,306.6-306.6
		C702,137.4,564.6,0,395.4,0z M405.4,179.3l-7.9,43.1l-14.4-2.6l7.9-43.1L405.4,179.3z M377.9,134.3c1.7,0.3,5.4,15.9,6.2,24.1
		c0.9,8.2-22.1,120.1-22.1,120.1s-14.7,6.2-19.8,4c-5.1-2.3-55.8-54.7-55.8-54.7l12.8-69.1l15.6-36
		C314.7,122.7,376.2,133.7,377.9,134.3z M280.1,234c7.4,7.6,13.6,13.9,19.3,19.6h-0.3c-31.2-5.7-53-33.7-51.6-64.6l36,6.5l-6.5,34.9
		L280.1,234z M302.2,128.9L290.9,155l-1.7,8.5l-32-6C267.1,141.9,283.5,131.2,302.2,128.9z M245,164.6l44.8,8.2l-2.6,14.4l-44.8-8.2
		L245,164.6z M267.4,479.1c-2.3,7.4-9.9,11.6-17.3,9.6l-72.5-21c-7.4-2.3-11.6-9.9-9.6-17.3l55.8-193.2c2.3-7.4,9.9-11.6,17.3-9.6
		l72.5,21c7.4,2.3,11.6,9.9,9.6,17.3l-17.3,59.2c-10.2-17.9-14.7-41.4-17.3-58.1c-2.3-15.6-14.5-26.4-30-26.4
		c-10.2,0-20.4,4.5-26.9,12.5c-6.5,7.6-9.4,17.3-7.7,27.5c6.8,45.3,20.4,78.5,41.6,101.1c6,6.2,12.8,11,20.1,14.2L267.4,479.1z
		 M366.8,449.6c-1.1,0.6-1.7,1.1-1.7,2c-1.4,5.4,4,16.7,7.4,21l-13,9.9c-3.7-4.8-13.6-21.5-10.2-34.9c1.4-6,5.4-10.2,11-12.8
		c7.4-3.1,25.2-31.7,37.4-56.4l14.7,7.4C405.6,398.9,383,442.6,366.8,449.6z M445.3,348.8c-6.8,12.2-15.9,33.7-15.9,33.7
		s-6.2,7.4-9.6,5.4c-2.5-1.4-14.7-9.9-20.7-14.5c-0.3,0.3-0.6,0.6-1.1,0.9c-16.7,13.6-37.1,21.8-54.7,28.6c-10.5,4-23,7.9-35.1,7.9
		c-13.9,0-26.1-5.4-36-15.9c-19.8-21.2-32.9-52.7-39.4-96.3c-1.1-7.4,0.8-14.4,5.7-20.1c5.1-5.9,12.5-9.4,20.1-9.4
		c11,0,19.5,7.4,21.2,18.7c2.8,18.4,7.9,45.3,20.4,64.9c5.1,7.9,9.1,9.1,12.5,9.1c5.7,0,13-3.4,21.8-7.4l4.2-2
		c8.8-4,24.1-12.2,26.6-13.9c4.5-3.7,9.9-5.7,15.6-5.7c10.5,0,20.7,7.1,24.4,17c0.3,0.6,0.6,1.4,0.6,2
		c14.2-25.2,38.5-67.2,40.8-64.9l31.7,28.6C478.2,316.2,452.1,336.6,445.3,348.8z M484.4,271.7L466,295.2l-10.8-8.5l21.2-27.2
		l49.9-11.9l3.1,13.3L484.4,271.7z M630.6,330.9l22.7-61.5L613,304.3l48.7-87.6l-3.1-0.6c-26.1,11.9-89,39.1-113,39.1
		c-5.4,0-8.8-1.4-9.6-4.5c-2.8-11.9,75.9-28.9,114.2-36.3l-42.5-8.2l31.5-16.7l-36-5.7l0.6-8.2h16.7l-34.3-15.9l2.8-7.9l51.6,13.3
		l-2,8.2l-6.5-1.7l26.6,12.5h-1.7l8.2,1.4l-32.6,17.3l41.9,8.2l-31.2,56.1l28.9-24.9l-23.5,63.5l27.8-22.1l-9.3,28.6l13.3-19.8
		l7.1,4.5l-47.9,72l20.1-61.5L630.6,330.9z"/>
</g>
</svg>
