<!--?xml version="1.0" encoding="utf-8"?-->
<!-- Generator: Adobe Illustrator 19.1.1, SVG Export Plug-In . SVG Version: 6.00 Build 0)  -->
<svg version="1.1" id="_x31_0" xmlns="http://www.w3.org/2000/svg" xmlns:xlink="http://www.w3.org/1999/xlink" x="0px" y="0px" viewBox="0 0 512 512" style="width: 256px; height: 256px; opacity: 1;" xml:space="preserve">
<style type="text/css">
	.st0{fill:#374149;}
</style>
<g>
	<path class="st0" d="M226.063,266.268c1.149,0,2.008-0.863,2.008-2.012V182.99c0-1.148-0.859-2.011-2.008-2.011H72.864
		c-1.149,0-2.082,0.863-2.082,2.011v81.266c0,1.149,0.934,2.012,2.082,2.012H226.063z M206.322,198.927v41.497
		c0,3.66-2.946,6.602-6.606,6.602H99.211c-3.664,0-6.676-2.942-6.676-6.602v-41.497c0-3.66,3.012-6.605,6.676-6.605h100.505
		C203.376,192.322,206.322,195.267,206.322,198.927z" style="fill: rgb(75, 75, 75);"></path>
	<path class="st0" d="M277.537,273.588h0.074c3.805-14.789,11.126-28.282,21.246-39.77V132.521l-2.008-5.453
		C273.662,66.837,214.434,26.274,149.462,26.274c-65.039,0-124.266,40.562-147.383,100.794L0,132.521v194.841l2.078,5.454
		c4.598,11.918,10.625,23.332,18.019,33.742c24.84,35.32,63.032,58.722,105.317,65.183v37.262c0,9.258,7.465,16.722,16.727,16.722
		h26.992c9.262,0,16.801-7.465,16.801-16.722v-39.63c25.77-6.105,49.746-18.594,69.418-36.254l4.523-99.43l0.36-6.606l5.167-4.09
		l7.754-6.031L277.537,273.588z M270.431,136.904c2.511-2.516,7.106-2.516,9.546,0c1.294,1.218,2.008,3.011,2.008,4.734
		c0,1.722-0.714,3.519-2.008,4.738c-1.293,1.293-2.945,2.011-4.738,2.011c-1.797,0-3.445-0.718-4.808-2.011
		c-1.153-1.219-1.867-2.942-1.867-4.738C268.564,139.915,269.278,138.122,270.431,136.904z M169.134,472.304h-26.992
		c-1.797,0-3.305-1.508-3.305-3.301v-160.38c0-1.797,1.508-3.301,3.305-3.301h26.992c1.867,0,3.301,1.504,3.301,3.301v160.38
		C172.434,470.796,171.001,472.304,169.134,472.304z M186.72,111.345c0.503-3.445,3.378-5.886,6.75-5.886
		c0.289,0,0.574,0,0.789,0.07c3.446,0.434,5.891,3.375,5.891,6.68v0.859c-0.504,3.374-3.375,5.816-6.68,5.816h-0.859
		C188.876,118.38,186.294,115.006,186.72,111.345z M64.391,127.712c-0.645,0.215-1.363,0.29-2.008,0.29
		c-2.871,0-5.527-1.797-6.39-4.668c-1.149-3.59,0.863-7.324,4.378-8.473c0.649-0.215,1.363-0.285,2.012-0.285
		c2.871,0,5.527,1.866,6.39,4.667c0.286,0.715,0.359,1.364,0.359,2.082C69.133,124.197,67.266,126.778,64.391,127.712z
		 M55.993,325.639c0.863-2.875,3.519-4.668,6.39-4.668c0.645,0,1.363,0.07,2.008,0.285c2.874,0.863,4.742,3.52,4.742,6.391
		c0,0.718-0.074,1.363-0.359,2.011c-0.934,2.871-3.59,4.738-6.39,4.738c-0.649,0-1.363-0.144-2.082-0.289
		C56.856,332.889,54.844,329.154,55.993,325.639z M61.809,264.256V182.99c0-6.027,4.954-10.984,11.055-10.984h153.199
		c6.102,0,10.985,4.957,10.985,10.984v81.266c0,6.031-4.883,10.985-10.985,10.985H72.864
		C66.762,275.241,61.809,270.287,61.809,264.256z M234.462,321.256c0.648-0.214,1.363-0.285,2.011-0.285
		c2.871,0,5.527,1.793,6.387,4.668c0.289,0.645,0.359,1.363,0.359,2.008c0,2.871-1.867,5.527-4.738,6.461
		c-0.645,0.214-1.363,0.289-2.008,0.289c-2.801,0-5.457-1.867-6.39-4.738C228.934,326.139,230.946,322.405,234.462,321.256z
		 M242.934,123.334c-0.863,2.871-3.59,4.738-6.39,4.738c-0.718,0-1.363-0.145-2.008-0.286c-3.59-1.152-5.527-4.953-4.453-8.473
		c0.934-2.871,3.59-4.668,6.39-4.668c0.645,0,1.363,0.074,2.082,0.29c2.871,0.863,4.664,3.515,4.664,6.39
		C243.22,122.041,243.15,122.689,242.934,123.334z M106.317,118.853c0,0,0,0,0-0.043c-0.285,0.074-0.574,0.074-0.859,0.074
		c-3.301,0-6.246-2.442-6.68-5.816c-0.426-3.734,2.157-7.106,5.817-7.539c0.359-0.07,0.648-0.07,0.934-0.07
		c3.305,0,6.176,2.442,6.606,5.817c0.07,0.285,0.07,0.574,0.07,0.859c0,3.113-2.126,5.77-5.153,6.511
		C106.798,118.701,106.582,118.83,106.317,118.853z M149.462,116.154c-3.73,0-6.746-2.942-6.746-6.676s3.016-6.746,6.746-6.746
		c3.734,0,6.75,3.011,6.75,6.746S153.196,116.154,149.462,116.154z M98.778,335.975c0.434-3.446,3.305-5.887,6.68-5.887
		c0.214,0,0.5,0,0.789,0.07c3.446,0.36,5.887,3.305,5.887,6.606v0.863c-0.504,3.371-3.375,5.887-6.676,5.887
		c-0.289,0-0.574,0-0.863-0.074C100.934,343.01,98.278,339.635,98.778,335.975z M192.536,330.158c0.289-0.07,0.649-0.07,0.934-0.07
		c3.305,0,6.176,2.442,6.606,5.887c0.074,0.285,0.074,0.574,0.074,0.863c0,3.301-2.516,6.172-5.891,6.602v0.074h-0.859
		c-3.301,0-6.246-2.442-6.679-5.887C186.294,333.963,188.876,330.592,192.536,330.158z M23.688,148.388
		c-1.794,0-3.516-0.718-4.809-2.011c-1.219-1.219-1.938-2.942-1.938-4.738c0-1.723,0.718-3.516,1.938-4.734
		c2.511-2.516,7.035-2.516,9.546,0c1.223,1.218,1.942,3.011,1.942,4.734c0,1.797-0.718,3.519-1.942,4.738
		C27.133,147.67,25.41,148.388,23.688,148.388z M18.879,302.518c2.511-2.438,7.035-2.438,9.546,0
		c1.223,1.297,1.942,3.02,1.942,4.813c0,1.797-0.718,3.446-1.942,4.738c-1.293,1.218-3.015,1.938-4.738,1.938
		c-1.794,0-3.516-0.719-4.809-1.938c-1.219-1.293-1.938-2.942-1.938-4.738C16.942,305.538,17.66,303.814,18.879,302.518z" style="fill: rgb(75, 75, 75);"></path>
	<path class="st0" d="M155.286,321.385c-5.378,0-9.73,4.352-9.73,9.731c0,0.941,0.137,1.836,0.359,2.691
		c1.165,4.078,4.93,7.035,9.371,7.035c0.223,0,0.493,0,0.715-0.043c5.023-0.359,8.969-4.527,8.969-9.683
		C164.97,325.737,160.622,321.385,155.286,321.385z" style="fill: rgb(75, 75, 75);"></path>
	<path class="st0" d="M155.286,369.222c-5.378,0-9.73,4.351-9.73,9.73c0,5.336,4.352,9.683,9.73,9.683
		c5.336,0,9.684-4.347,9.684-9.683C164.97,373.573,160.622,369.222,155.286,369.222z" style="fill: rgb(75, 75, 75);"></path>
	<path class="st0" d="M184.204,205.717c-5.293,6.992-11.386,13.359-18.25,18.918c-4.75,3.856-2.238,11.477,3.902,11.477h19.367
		c3.543,0,6.41-2.867,6.41-6.41v-20.086C195.634,203.564,187.88,200.83,184.204,205.717z" style="fill: rgb(75, 75, 75);"></path>
	<path class="st0" d="M511.424,199.431l-6.457-25.343c-2.156-8.399-9.695-13.926-17.95-13.926c-1.507,0-3.015,0.215-4.594,0.574
		l-12.203,3.16l-89.454,22.828l-8.828,2.227c-2.012,0.5-3.446,2.367-3.446,4.449l-0.144,6.102l-0.145,10.77l-5.813,1.508
		c-29.218,7.465-51.546,24.84-63.535,46.95c-2.515,4.469-4.449,9.183-5.973,13.996c-0.214,0.621-0.488,1.23-0.691,1.855h0.043
		c-0.016,0.055-0.039,0.106-0.055,0.157l6.676,0.504l16.73,1.363l2.508,0.218c6.496-16.363,20.719-29.883,40.512-37.383
		c0.129-0.046,0.246-0.109,0.375-0.156c1.027-0.386,2.144-0.664,3.203-1.016c1.867-0.609,3.714-1.242,5.66-1.738l-0.07,2.242
		l-0.141,10.481c0,2.656,2.153,4.668,4.664,4.668c0.36,0,0.719,0,1.149-0.145l6.316-1.578l106.036-27.137l12.274-3.086
		C507.979,219.459,513.94,209.338,511.424,199.431z M392.69,235.787l0.07-5.703l0.43-26.199l0.07-7.325l27.93-7.109l1.722,6.82
		l6.242,24.481l1.363,5.382l-30.125,7.719L392.69,235.787z M440.069,223.767l-1.363-5.457l-6.246-24.481l-1.797-6.82l52.981-13.566
		l1.941-0.43c0.43-0.145,0.93-0.215,1.434-0.215c2.586,0,5.024,1.793,5.672,4.375l6.461,25.414c0.79,3.16-1.078,6.32-4.234,7.109
		l-1.867,0.5l-52.754,13.512L440.069,223.767z" style="fill: rgb(75, 75, 75);"></path>
	<path class="st0" d="M412.287,212.713c-1.222-1.438-2.946-2.371-4.813-2.586c-0.859-0.145-1.793-0.07-2.726,0.144
		c-1.938,0.574-3.519,1.793-4.523,3.375v0.07c-1.004,1.652-1.363,3.66-0.86,5.672c0.141,0.648,0.43,1.218,0.715,1.793
		c1.222,2.156,3.45,3.59,5.886,3.805c0,0.074,0,0.074,0.074,0c0.79,0.145,1.578,0.074,2.442-0.141
		c0.785-0.218,1.504-0.574,2.152-1.008c0.07,0,0.141,0,0.141-0.07c2.586-1.722,3.879-4.953,3.09-8.038
		C413.576,214.576,413.002,213.572,412.287,212.713z" style="fill: rgb(75, 75, 75);"></path>
	<polygon class="st0" points="281.568,433.726 281.142,433.69 281.142,433.69 280.982,433.678 278.982,466.249 278.982,466.257 
		278.982,466.257 278.97,466.417 302.806,467.925 304.818,435.55 304.529,435.55 	" style="fill: rgb(75, 75, 75);"></polygon>
	<path class="st0" d="M323.697,291.682l-9.262-0.718l-15.578-1.293l-9.547-0.79l-7.324-0.574l-6.961,5.382l-0.789,0.649l-0.29,6.531
		l-0.574,12.851l-2.941,63.821l-1.582,34.821l-0.285,5.882l13.281,1.078l23.833,1.938l12.637,1.004l0.574-5.887l4.738-50.324
		l8.973-0.645l2.871-39.989l7.61-1.003l1.938-18.52l-17.302-11.488L323.697,291.682z M291.822,315.658
		c-0.359,0.07-0.645,0.07-1.004,0.145h-0.214c-0.79,0-1.582-0.219-2.297-0.574c-1.223-0.574-2.227-1.797-2.586-3.234
		c-0.645-2.508,0.719-5.094,3.156-5.953c0.145,0,0.219-0.074,0.36-0.074l0.074-0.07c0.43-0.074,0.864-0.145,1.219-0.145
		c2.226,0,4.309,1.508,4.882,3.805C296.056,312.214,294.478,314.94,291.822,315.658z" style="fill: rgb(75, 75, 75);"></path>
</g>
</svg>
